<svg
  viewBox="0 0 600 600"
  version="1.1"
  id="svg9724"
  sodipodi:docname="arrow-right.svg"
  inkscape:version="1.2.2 (1:1.2.2+202212051550+b0a8486541)"
  width="20px"
  height="20px"
  xmlns:inkscape="http://www.inkscape.org/namespaces/inkscape"
  xmlns:sodipodi="http://sodipodi.sourceforge.net/DTD/sodipodi-0.dtd"
  xmlns="http://www.w3.org/2000/svg"
  xmlns:svg="http://www.w3.org/2000/svg"
  fill="#000000"
><g id="SVGRepo_bgCarrier" stroke-width="0" /><g
    id="SVGRepo_tracerCarrier"
    stroke-linecap="round"
    stroke-linejoin="round"
  /><g id="SVGRepo_iconCarrier"> <defs id="defs9728" /> <sodipodi:namedview
      id="namedview9726"
      pagecolor="#ffffff"
      bordercolor="#ffffff"
      borderopacity="1.0"
      inkscape:showpageshadow="2"
      inkscape:pageopacity="0.0"
      inkscape:pagecheckerboard="0"
      inkscape:deskcolor="#ffffff"
      showgrid="true"
      inkscape:zoom="0.84118632"
      inkscape:cx="21.398351"
      inkscape:cy="385.76471"
      inkscape:window-width="1920"
      inkscape:window-height="1009"
      inkscape:window-x="0"
      inkscape:window-y="1080"
      inkscape:window-maximized="1"
      inkscape:current-layer="g10449"
      showguides="true"
    > <inkscape:grid
        type="xygrid"
        id="grid9972"
        originx="0"
        originy="0"
      /> <sodipodi:guide
        position="-260,300"
        orientation="0,-1"
        id="guide383"
        inkscape:locked="false"
      /> <sodipodi:guide
        position="200,470"
        orientation="1,0"
        id="guide385"
        inkscape:locked="false"
      /> <sodipodi:guide
        position="240,520"
        orientation="0,-1"
        id="guide939"
        inkscape:locked="false"
      /> <sodipodi:guide
        position="220,80"
        orientation="0,-1"
        id="guide941"
        inkscape:locked="false"
      /> </sodipodi:namedview> <g
      id="g10449"
      transform="matrix(0.95173205,0,0,0.95115787,13.901174,12.168794)"
      style="stroke-width:1.05103"
    > <g
        id="path10026"
        inkscape:transform-center-x="-0.59233046"
        inkscape:transform-center-y="-20.347403"
        transform="matrix(1.3807551,0,0,1.2700888,273.60014,263.99768)"
      /> <g
        id="g11314"
        transform="matrix(1.5092301,0,0,1.3955555,36.774048,-9.4503933)"
        style="stroke-width:50.6951"
      /> <path
        style="color:#ffffff;fill:#ffffff;stroke-linecap:round;-inkscape-stroke:none"
        d="m 571.76954,260.61914 a 42.041302,42.041302 0 0 1 30.2832,10.875 42.041302,42.041302 0 0 1 2.8457,59.38867 L 394.75586,562.17969 a 42.041302,42.041302 0 0 1 -59.38867,2.8457 42.041302,42.041302 0 0 1 -2.8457,-59.38672 L 542.66602,274.33984 a 42.041302,42.041302 0 0 1 29.10352,-13.7207 z"
        id="path298"
      /> <path
        style="color:#ffffff;fill:#ffffff;stroke-linecap:round;-inkscape-stroke:none"
        d="m 574.43164,260.57031 a 42.041302,42.041302 0 0 1 42.04102,42.04102 42.041302,42.041302 0 0 1 -42.04102,42.04101 H 26.785161 a 42.041302,42.041302 0 0 1 -42.04102,-42.04101 42.041302,42.041302 0 0 1 42.04102,-42.04102 z"
        id="path908"
      /> <path
        style="color:#ffffff;fill:#ffffff;stroke-linecap:round;-inkscape-stroke:none"
        d="m 365.65039,29.320312 a 42.041302,42.041302 0 0 1 29.10547,13.722657 L 604.89844,274.33984 a 42.041302,42.041302 0 0 1 -2.8457,59.38868 42.041302,42.041302 0 0 1 -59.38672,-2.84571 L 332.52149,99.585937 a 42.041302,42.041302 0 0 1 2.8457,-59.388671 42.041302,42.041302 0 0 1 30.2832,-10.876954 z"
        id="path910"
      /> </g> </g></svg>
